<svg width="219" height="86" viewBox="0 0 219 86" fill="none" xmlns="http://www.w3.org/2000/svg">
<path d="M0.623871 59.3326V0H13.338V59.3326H0.623871Z" fill="#212121"/>
<path d="M24.3801 59.3326V0H43.4513L57.8607 33.9044H59.9797L74.389 0H93.4603V59.3326H80.7461V21.614L81.5937 13.9855H80.7461L67.1844 45.7709H50.656L37.0942 13.9855H36.2466L37.0942 21.614V59.3326H24.3801Z" fill="#212121"/>
<path d="M104.092 59.3326V0H134.606C140.539 0 145.201 1.44094 148.591 4.32281C151.982 7.20468 153.677 10.8494 153.677 15.257C153.677 19.495 152.123 22.8289 149.015 25.2587C147.546 26.2759 145.992 27.0387 144.353 27.5473V27.9711C146.331 28.3666 148.224 29.1577 150.032 30.3444C153.875 32.8872 155.796 36.758 155.796 41.9566C155.796 47.0423 153.875 51.2238 150.032 54.5013C146.246 57.7222 140.963 59.3326 134.182 59.3326H104.092ZM116.806 23.3093H132.91C135.34 23.3093 137.205 22.7724 138.505 21.6988C139.861 20.5686 140.539 19.1277 140.539 17.376C140.539 15.6243 139.861 14.2116 138.505 13.1379C137.205 12.0078 135.34 11.4427 132.91 11.4427H116.806V23.3093ZM116.806 47.8899H133.334C136.442 47.8899 138.759 47.2683 140.285 46.0252C141.867 44.782 142.658 43.1433 142.658 41.109C142.658 39.0748 141.867 37.4361 140.285 36.1929C138.759 34.9497 136.442 34.3282 133.334 34.3282H116.806V47.8899Z" fill="#212121"/>
<path d="M159.183 59.3326L174.864 0H201.564L217.244 59.3326H204.106L200.716 46.1947H175.711L172.321 59.3326H159.183ZM178.678 34.3282H197.749L191.816 11.8665H184.611L178.678 34.3282Z" fill="#212121"/>
<path d="M1.23751 81.3985C0.412503 80.5509 0 79.4773 0 78.1776C0 76.8779 0.412503 75.8043 1.23751 74.9567C2.06252 74.1091 3.09095 73.6853 4.32281 73.6853C5.70158 73.6853 6.82608 74.2108 7.69629 75.2618C8.06924 75.7478 8.32917 76.2677 8.47609 76.8214H6.61135C6.53224 76.5389 6.38532 76.2846 6.17059 76.0586C5.72984 75.55 5.11391 75.2957 4.32281 75.2957C3.62212 75.2957 3.03444 75.5613 2.55978 76.0925C2.09642 76.6236 1.86474 77.3187 1.86474 78.1776C1.86474 79.0365 2.09642 79.7315 2.55978 80.2627C3.03444 80.7939 3.62212 81.0595 4.32281 81.0595C5.13651 81.0595 5.77504 80.8052 6.2384 80.2966C6.44183 80.0706 6.5944 79.8163 6.69611 79.5338H8.47609C8.32917 80.1101 8.06924 80.6357 7.69629 81.1103C6.83738 82.1501 5.71289 82.6699 4.32281 82.6699C3.09095 82.6699 2.06252 82.2461 1.23751 81.3985Z" fill="#212121"/>
<path d="M14.1498 82.5004V73.8548H15.9298V75.1262H16.0145C16.1388 74.8889 16.3197 74.6628 16.557 74.4481C17.0768 73.9961 17.6871 73.77 18.3878 73.77H19.4049V75.4652H18.3031C17.6137 75.4652 17.0429 75.6856 16.5909 76.1264C16.1501 76.5558 15.9298 77.1266 15.9298 77.8386V82.5004H14.1498Z" fill="#212121"/>
<path d="M25.7561 81.3816C24.9084 80.5113 24.4846 79.4434 24.4846 78.1776C24.4846 76.9118 24.9084 75.8495 25.7561 74.9906C26.615 74.1204 27.6603 73.6853 28.8922 73.6853C30.1241 73.6853 31.1638 74.1204 32.0114 74.9906C32.8703 75.8495 33.2998 76.9118 33.2998 78.1776V78.7709H26.2646C26.4002 79.4829 26.711 80.0423 27.197 80.4492C27.683 80.856 28.248 81.0595 28.8922 81.0595C29.6833 81.0595 30.3162 80.8617 30.7909 80.4661C31.0056 80.3079 31.1921 80.1101 31.3503 79.8728H33.215C32.9777 80.4266 32.6782 80.8956 32.3166 81.2798C31.3898 82.2066 30.2484 82.6699 28.8922 82.6699C27.6603 82.6699 26.615 82.2405 25.7561 81.3816ZM26.3494 77.33H31.435C31.3333 76.7649 31.0621 76.2846 30.6213 75.8891C30.1919 75.4935 29.6155 75.2957 28.8922 75.2957C28.2819 75.2957 27.7395 75.4822 27.2648 75.8551C26.7901 76.2168 26.485 76.7084 26.3494 77.33Z" fill="#212121"/>
<path d="M39.709 81.4324C38.9405 80.5961 38.5563 79.5112 38.5563 78.1776C38.5563 76.844 38.9405 75.7647 39.709 74.9397C40.4888 74.1034 41.4607 73.6853 42.6248 73.6853C43.3594 73.6853 44.0318 73.9 44.6421 74.3295C44.902 74.5103 45.1337 74.7194 45.3371 74.9567H45.4219V73.8548H47.2019V82.5004H45.4219V81.3138H45.3371C45.1676 81.5511 44.9359 81.7771 44.6421 81.9918C44.0318 82.4439 43.3594 82.6699 42.6248 82.6699C41.4607 82.6699 40.4888 82.2574 39.709 81.4324ZM41.0991 76.0416C40.647 76.5389 40.421 77.2509 40.421 78.1776C40.421 79.1043 40.647 79.8163 41.0991 80.3136C41.5512 80.8108 42.1727 81.0595 42.9638 81.0595C43.7097 81.0595 44.3031 80.8108 44.7438 80.3136C45.1959 79.805 45.4219 79.093 45.4219 78.1776C45.4219 77.2622 45.1959 76.5558 44.7438 76.0586C44.3031 75.55 43.7097 75.2957 42.9638 75.2957C42.1727 75.2957 41.5512 75.5444 41.0991 76.0416Z" fill="#212121"/>
<path d="M52.7895 75.4652V73.8548H53.8066V71.9901H55.5866V73.8548H58.2142V75.4652H55.5866V80.8899H58.2989V82.5004H53.8066V75.4652H52.7895Z" fill="#212121"/>
<path d="M64.1983 72.2782C63.9949 72.0748 63.8932 71.8262 63.8932 71.5323C63.8932 71.2385 63.9949 70.9899 64.1983 70.7864C64.4017 70.5717 64.6504 70.4644 64.9442 70.4644C65.238 70.4644 65.4867 70.5717 65.6901 70.7864C65.9048 70.9899 66.0122 71.2385 66.0122 71.5323C66.0122 71.8262 65.9048 72.0748 65.6901 72.2782C65.4867 72.4817 65.238 72.5834 64.9442 72.5834C64.6504 72.5834 64.4017 72.4817 64.1983 72.2782ZM64.0627 82.5004V73.8548H65.8427V82.5004H64.0627Z" fill="#212121"/>
<path d="M71.2607 73.8548H73.1255L74.9902 80.8899H76.0921L77.9568 73.8548H79.8216L77.4483 82.5004H73.634L71.2607 73.8548Z" fill="#212121"/>
<path d="M86.0158 81.3816C85.1681 80.5113 84.7443 79.4434 84.7443 78.1776C84.7443 76.9118 85.1681 75.8495 86.0158 74.9906C86.8747 74.1204 87.9201 73.6853 89.1519 73.6853C90.3838 73.6853 91.4235 74.1204 92.2711 74.9906C93.13 75.8495 93.5595 76.9118 93.5595 78.1776V78.7709H86.5243C86.6599 79.4829 86.9707 80.0423 87.4567 80.4492C87.9427 80.856 88.5077 81.0595 89.1519 81.0595C89.943 81.0595 90.5759 80.8617 91.0506 80.4661C91.2653 80.3079 91.4518 80.1101 91.61 79.8728H93.4747C93.2374 80.4266 92.9379 80.8956 92.5762 81.2798C91.6495 82.2066 90.5081 82.6699 89.1519 82.6699C87.9201 82.6699 86.8747 82.2405 86.0158 81.3816ZM86.6091 77.33H91.6947C91.593 76.7649 91.3218 76.2846 90.881 75.8891C90.4516 75.4935 89.8752 75.2957 89.1519 75.2957C88.5416 75.2957 87.9992 75.4822 87.5245 75.8551C87.0498 76.2168 86.7447 76.7084 86.6091 77.33Z" fill="#212121"/>
<path d="M108.958 81.4324C108.19 80.5961 107.805 79.5112 107.805 78.1776C107.805 76.844 108.19 75.7647 108.958 74.9397C109.738 74.1034 110.71 73.6853 111.874 73.6853C112.608 73.6853 113.281 73.9 113.891 74.3295C114.151 74.5103 114.383 74.7194 114.586 74.9567H114.671V70.6339H116.451V82.5004H114.671V81.3985H114.586C114.394 81.6358 114.162 81.8506 113.891 82.0427C113.292 82.4608 112.62 82.6699 111.874 82.6699C110.71 82.6699 109.738 82.2574 108.958 81.4324ZM110.348 76.0416C109.896 76.5389 109.67 77.2509 109.67 78.1776C109.67 79.1043 109.896 79.8163 110.348 80.3136C110.8 80.8108 111.422 81.0595 112.213 81.0595C112.959 81.0595 113.552 80.8108 113.993 80.3136C114.445 79.805 114.671 79.093 114.671 78.1776C114.671 77.2622 114.445 76.5558 113.993 76.0586C113.552 75.55 112.959 75.2957 112.213 75.2957C111.422 75.2957 110.8 75.5444 110.348 76.0416Z" fill="#212121"/>
<path d="M123.479 81.3816C122.632 80.5113 122.208 79.4434 122.208 78.1776C122.208 76.9118 122.632 75.8495 123.479 74.9906C124.338 74.1204 125.384 73.6853 126.616 73.6853C127.847 73.6853 128.887 74.1204 129.735 74.9906C130.594 75.8495 131.023 76.9118 131.023 78.1776V78.7709H123.988C124.124 79.4829 124.434 80.0423 124.92 80.4492C125.406 80.856 125.971 81.0595 126.616 81.0595C127.407 81.0595 128.04 80.8617 128.514 80.4661C128.729 80.3079 128.915 80.1101 129.074 79.8728H130.938C130.701 80.4266 130.402 80.8956 130.04 81.2798C129.113 82.2066 127.972 82.6699 126.616 82.6699C125.384 82.6699 124.338 82.2405 123.479 81.3816ZM124.073 77.33H129.158C129.057 76.7649 128.785 76.2846 128.345 75.8891C127.915 75.4935 127.339 75.2957 126.616 75.2957C126.005 75.2957 125.463 75.4822 124.988 75.8551C124.514 76.2168 124.208 76.7084 124.073 77.33Z" fill="#212121"/>
<path d="M136.195 79.7881H138.144C138.223 80.0141 138.365 80.2288 138.568 80.4322C138.986 80.8504 139.551 81.0595 140.263 81.0595C140.885 81.0595 141.337 80.9634 141.62 80.7713C141.902 80.5792 142.043 80.3362 142.043 80.0423C142.043 79.9406 142.021 79.8502 141.976 79.7711C141.93 79.6807 141.851 79.6016 141.738 79.5338C141.625 79.466 141.518 79.4095 141.416 79.3643C141.314 79.3077 141.162 79.2569 140.958 79.2117C140.755 79.1552 140.591 79.1156 140.467 79.093C140.343 79.0591 140.15 79.0139 139.89 78.9574C139.642 78.9009 139.455 78.8613 139.331 78.8387C137.523 78.4319 136.619 77.5617 136.619 76.2281C136.619 75.55 136.929 74.9567 137.551 74.4481C138.173 73.9396 138.992 73.6853 140.009 73.6853C141.422 73.6853 142.478 74.1373 143.179 75.0414C143.496 75.437 143.71 75.8891 143.823 76.3976H141.959C141.868 76.1716 141.744 75.9908 141.586 75.8551C141.19 75.4822 140.665 75.2957 140.009 75.2957C139.501 75.2957 139.116 75.3861 138.856 75.567C138.608 75.7478 138.483 75.9738 138.483 76.245C138.483 76.3468 138.506 76.4428 138.551 76.5332C138.596 76.6123 138.676 76.6858 138.789 76.7536C138.902 76.8214 139.009 76.8779 139.111 76.9231C139.224 76.9683 139.376 77.0192 139.568 77.0757C139.76 77.1209 139.924 77.1605 140.06 77.1944C140.196 77.217 140.382 77.2565 140.619 77.313C140.868 77.3582 141.06 77.3978 141.196 77.4317C143.004 77.8386 143.908 78.7088 143.908 80.0423C143.908 80.7656 143.58 81.3872 142.925 81.9071C142.281 82.4156 141.394 82.6699 140.263 82.6699C138.794 82.6699 137.67 82.1896 136.89 81.229C136.54 80.7882 136.308 80.3079 136.195 79.7881Z" fill="#212121"/>
<path d="M149.804 72.2782C149.6 72.0748 149.498 71.8262 149.498 71.5323C149.498 71.2385 149.6 70.9899 149.804 70.7864C150.007 70.5717 150.256 70.4644 150.549 70.4644C150.843 70.4644 151.092 70.5717 151.295 70.7864C151.51 70.9899 151.617 71.2385 151.617 71.5323C151.617 71.8262 151.51 72.0748 151.295 72.2782C151.092 72.4817 150.843 72.5834 150.549 72.5834C150.256 72.5834 150.007 72.4817 149.804 72.2782ZM149.668 82.5004V73.8548H151.448V82.5004H149.668Z" fill="#212121"/>
<path d="M158.358 81.4324C157.589 80.5961 157.205 79.5112 157.205 78.1776C157.205 76.844 157.589 75.7647 158.358 74.9397C159.138 74.1034 160.109 73.6853 161.274 73.6853C162.008 73.6853 162.681 73.9 163.291 74.3295C163.562 74.5216 163.794 74.7363 163.986 74.9736H164.071V73.8548H165.851V85.7213H158.476V84.1109H164.071V81.3985H163.986C163.794 81.6358 163.562 81.8506 163.291 82.0427C162.692 82.4608 162.019 82.6699 161.274 82.6699C160.109 82.6699 159.138 82.2574 158.358 81.4324ZM159.748 76.0416C159.296 76.5389 159.07 77.2509 159.07 78.1776C159.07 79.1043 159.296 79.8163 159.748 80.3136C160.2 80.8108 160.821 81.0595 161.613 81.0595C162.358 81.0595 162.952 80.8108 163.393 80.3136C163.845 79.805 164.071 79.093 164.071 78.1776C164.071 77.2622 163.845 76.5558 163.393 76.0586C162.952 75.55 162.358 75.2957 161.613 75.2957C160.821 75.2957 160.2 75.5444 159.748 76.0416Z" fill="#212121"/>
<path d="M172.116 82.5004V73.8548H173.896V75.0414H173.981C174.117 74.8154 174.326 74.5894 174.608 74.3634C175.219 73.9113 175.914 73.6853 176.693 73.6853C177.767 73.6853 178.598 73.9961 179.185 74.6176C179.784 75.2392 180.084 76.1433 180.084 77.33V82.5004H178.304V77.4995C178.304 76.7423 178.134 76.1885 177.795 75.8382C177.468 75.4766 176.959 75.2957 176.27 75.2957C175.58 75.2957 175.009 75.5331 174.557 76.0077C174.117 76.4711 173.896 77.0814 173.896 77.8386V82.5004H172.116Z" fill="#212121"/>
<path d="M187.034 81.3816C186.186 80.5113 185.762 79.4434 185.762 78.1776C185.762 76.9118 186.186 75.8495 187.034 74.9906C187.892 74.1204 188.938 73.6853 190.17 73.6853C191.402 73.6853 192.441 74.1204 193.289 74.9906C194.148 75.8495 194.577 76.9118 194.577 78.1776V78.7709H187.542C187.678 79.4829 187.989 80.0423 188.474 80.4492C188.96 80.856 189.526 81.0595 190.17 81.0595C190.961 81.0595 191.594 80.8617 192.068 80.4661C192.283 80.3079 192.47 80.1101 192.628 79.8728H194.492C194.255 80.4266 193.956 80.8956 193.594 81.2798C192.667 82.2066 191.526 82.6699 190.17 82.6699C188.938 82.6699 187.892 82.2405 187.034 81.3816ZM187.627 77.33H192.713C192.611 76.7649 192.34 76.2846 191.899 75.8891C191.469 75.4935 190.893 75.2957 190.17 75.2957C189.559 75.2957 189.017 75.4822 188.542 75.8551C188.068 76.2168 187.762 76.7084 187.627 77.33Z" fill="#212121"/>
<path d="M200.342 82.5004V73.8548H202.122V75.1262H202.207C202.331 74.8889 202.512 74.6628 202.75 74.4481C203.269 73.9961 203.88 73.77 204.58 73.77H205.598V75.4652H204.496C203.806 75.4652 203.235 75.6856 202.783 76.1264C202.343 76.5558 202.122 77.1266 202.122 77.8386V82.5004H200.342Z" fill="#212121"/>
<path d="M210.592 79.7881H212.542C212.621 80.0141 212.762 80.2288 212.966 80.4322C213.384 80.8504 213.949 81.0595 214.661 81.0595C215.283 81.0595 215.735 80.9634 216.017 80.7713C216.3 80.5792 216.441 80.3362 216.441 80.0423C216.441 79.9406 216.418 79.8502 216.373 79.7711C216.328 79.6807 216.249 79.6016 216.136 79.5338C216.023 79.466 215.915 79.4095 215.814 79.3643C215.712 79.3077 215.559 79.2569 215.356 79.2117C215.153 79.1552 214.989 79.1156 214.864 79.093C214.74 79.0591 214.548 79.0139 214.288 78.9574C214.039 78.9009 213.853 78.8613 213.729 78.8387C211.92 78.4319 211.016 77.5617 211.016 76.2281C211.016 75.55 211.327 74.9567 211.949 74.4481C212.57 73.9396 213.39 73.6853 214.407 73.6853C215.819 73.6853 216.876 74.1373 217.577 75.0414C217.893 75.437 218.108 75.8891 218.221 76.3976H216.356C216.266 76.1716 216.141 75.9908 215.983 75.8551C215.588 75.4822 215.062 75.2957 214.407 75.2957C213.898 75.2957 213.514 75.3861 213.254 75.567C213.005 75.7478 212.881 75.9738 212.881 76.245C212.881 76.3468 212.904 76.4428 212.949 76.5332C212.994 76.6123 213.073 76.6858 213.186 76.7536C213.299 76.8214 213.406 76.8779 213.508 76.9231C213.621 76.9683 213.774 77.0192 213.966 77.0757C214.158 77.1209 214.322 77.1605 214.458 77.1944C214.593 77.217 214.78 77.2565 215.017 77.313C215.266 77.3582 215.458 77.3978 215.593 77.4317C217.402 77.8386 218.306 78.7088 218.306 80.0423C218.306 80.7656 217.978 81.3872 217.322 81.9071C216.678 82.4156 215.791 82.6699 214.661 82.6699C213.192 82.6699 212.067 82.1896 211.287 81.229C210.937 80.7882 210.705 80.3079 210.592 79.7881Z" fill="#212121"/>
</svg>
